<svg width="500" height="500" viewBox="0 0 500 500" fill="none" xmlns="http://www.w3.org/2000/svg">
<path d="M229.103 78.7815L229.064 79.8513C225.972 81.3192 223.916 81.3543 221.818 83.1935C216.159 88.1535 196.69 89.4063 194.75 95.5915L194.768 95.3165L196.409 96.3079C207.382 90.7298 239.57 80.0143 251.312 83.4018C234.785 83.6748 222.975 88.9621 207.554 94.3044L129.28 121.45C120.584 124.454 109.767 127.621 101.992 132.162C119.004 133.45 167.632 154.322 186.472 161.513L223.35 175.637C228.713 177.696 242.87 180.465 242.038 187.423C236.813 191.74 225.592 184.452 219.349 182.116L156.628 158.203C145.857 154.082 134.344 149.474 123.272 146.185C120.837 145.462 115.166 146.14 112.569 146.473C125.852 161.193 130.767 180.995 114.388 196.44C106.333 204.036 89.835 209.404 79.0605 213.216C88.4586 215.985 105.212 218.812 115.151 220.767L180.646 233.51C184.886 234.319 207.625 238.266 210.494 239.564C214.182 239.77 224.245 241.859 228.596 242.558L221.062 238.848C196.538 228.87 171.713 218.714 146.977 209.21C142.086 207.331 130.685 203.565 128.564 198.968C128.82 196.829 128.481 197.656 130.3 195.839C131.718 195.238 133.16 195.187 134.616 195.776C175.626 212.377 216.613 229.091 257.548 245.882C264.32 248.327 278.53 253.036 285.852 251.491C303.968 247.667 325.775 234.432 342.64 226.796L342.729 227.78C340.014 229.411 333.661 233.14 332.265 235.671L332.595 236.901C334.259 237.781 335.394 237.729 337.257 237.896C322.75 244.886 303.892 254.976 288.898 259.165C295.264 273.242 294.639 287.866 289.372 302.137C312.988 293.942 336.363 279.526 359.387 269.533C366.228 266.564 372.972 262.76 379.847 259.825L379.834 260.754C377.324 262.47 374.732 263.998 372.952 266.457L372.897 267.458C376.396 269.759 379.71 268.206 383.085 266.836C371.645 277.469 374.636 287.891 372.677 301.604C371.639 308.834 368.785 315.793 363.306 320.782C353.303 329.886 298.963 347.526 283.432 353.248C275.21 356.277 265.798 358.838 258.751 364.198C252 369.33 247.614 376.983 246.603 385.406C245.558 393.66 246.981 403.544 252.192 410.229C254.681 413.42 257.754 415.49 261.817 415.974C265.901 416.461 270.177 415.538 274.062 414.324C288.231 409.897 424.686 358.261 428.364 355.173C429.547 354.181 429.567 354.058 429.739 352.526C428.488 350.887 426.852 349.883 424.796 350.279C415.329 352.104 403.126 357.312 393.934 360.735L316.267 389.665C303.301 394.502 290.3 399.676 277.107 403.795C270.239 405.937 261.322 404.185 258.187 397.017C252.543 384.141 259.384 371.207 271.965 366.071C281.638 362.118 291.249 358.633 301.08 355.026L392.497 321.727C398.479 319.55 412.593 312.83 418.801 315.783C425.243 318.845 424.741 331.03 418.712 334.701C409.802 340.121 398.616 343.468 388.613 347.113L343.589 363.504L303.088 378.687C297.863 380.636 279.52 388.727 274.976 386.201L274.584 384.179C276.104 378.832 295.635 373.27 301.52 371.079L372.58 344.945C380.555 342.025 411.472 332.143 415.831 326.379C416.147 324.014 416.45 324.575 415.425 323.016C411.699 321.803 397.64 327.855 393.453 329.378L358.397 342.183C332.059 351.829 305.79 361.311 279.369 371.088C269.916 374.587 260.917 381.123 265.049 393.16C265.777 395.277 269.414 397.603 271.655 397.124C281.81 394.953 292.04 390.576 301.83 386.921L381.078 357.503C390.834 353.877 423.813 339.233 430.798 343.722C454.352 358.867 411.424 370.419 405.017 372.85L309.709 409.328C259.94 428.438 261.26 430.169 211.307 411.673L153.036 389.96L109.348 373.533C100.231 370.162 86.3473 365.646 78.4493 361.193C57.3575 349.3 54.756 305.861 73.9497 291.137C84.6259 282.947 99.6958 278.092 112.073 274.703C101.322 272.16 73.038 268.801 64.9737 262.961C60.2038 259.507 62.4189 231.36 62.0882 224.039C62.9057 202.595 97.5041 203.228 109.505 191.176C121.519 179.11 118.369 163.784 108.047 152.53C103.57 164.406 107.743 172.367 105.847 183.89C104.199 188.027 99.6381 191.318 95.6919 188.956C73.8857 175.903 79.2084 135.409 100.46 124.817C114.484 117.828 133.595 111.855 148.523 106.869C175.358 97.9045 202.357 87.3945 229.103 78.7815ZM100.7 361.903L197.888 398.346C207.966 402.138 237.136 413.92 246.459 415.931C234.599 396.269 234.888 369.707 256.86 356.144C264.004 351.735 275.024 348.343 283.123 345.293L334.912 326.218C340.715 324.05 352.547 320.314 357.091 316.606C368.407 307.37 364.757 288.28 367.768 275.62C367.926 274.963 367.83 274.703 367.637 274.115C350.78 281.673 303.927 307.535 289.283 308.872C276.963 309.996 263.392 305.606 251.367 303.115L185.338 289.649C167.272 285.941 142.494 279.315 124.725 280.281C110.338 281.064 76.0699 291.9 71.4843 307.261C68.1485 318.436 67.4315 332.98 73.0724 343.548C78.7725 355.548 89.1152 357.737 100.7 361.903ZM282.875 298.379C286.691 288.384 287.427 275.709 283.639 265.377C283.061 263.795 280.923 260.634 279.349 260.199C273.189 258.492 265.75 257.396 259.48 256.255L224.505 249.614C173.986 239.947 120.56 230.248 70.4029 219.408C69.681 224.924 68.7137 254.031 70.9205 257.807C77.469 260.637 117.194 268.011 126.857 269.941L241.137 293.289C253.224 295.784 265.324 298.291 277.437 300.678C280.174 301.22 281.067 300.293 282.875 298.379ZM99.3775 181.632C97.6326 163.707 95.3715 152.627 110.678 140.307C108.694 140.064 103.58 139.308 101.836 139.444C88.7241 141.974 88.1651 156.047 89.7319 167.2C90.5693 173.165 93.5235 179.239 99.3775 181.632Z" fill="url(#paint0_linear_2_50)"/>
<path d="M221.062 238.848C223.631 238.317 235.472 243.986 238.951 245.473C233.534 244.677 213.916 242.647 210.494 239.564C214.182 239.77 224.245 241.859 228.596 242.558L221.062 238.848Z" fill="url(#paint1_linear_2_50)"/>
<path d="M96.1277 299.413C98.8372 299.56 101.644 300.493 104.191 301.436C145.909 316.883 187.712 332.189 229.59 347.196C232.194 348.129 233.038 349.037 234.084 351.448C233.994 353.652 233.52 354.136 232.291 355.932C225.001 354.707 194.299 342.802 185.399 339.597C156.677 329.255 127.382 318.437 98.6371 307.925C95.6726 306.841 94.9308 306.636 93.8005 304.07C94.0418 301.803 94.752 301.162 96.1277 299.413Z" fill="url(#paint2_linear_2_50)"/>
<path d="M269.978 199.146C272.178 198.025 281.04 194.433 283.226 193.924C300.049 190.012 382.508 154.838 394.402 157.386C404.267 163.528 406.495 173.539 410.372 184.188C442.19 183.967 444.823 224.717 429.224 242.466C424.232 248.148 392.044 262.504 383.085 266.836C379.71 268.206 376.396 269.759 372.897 267.458L372.952 266.457C374.732 263.998 377.324 262.47 379.834 260.754L379.847 259.825C393.109 253.198 408.874 246.92 421.214 239.348C433.039 232.086 433.782 206.473 425.154 196.451C421.249 191.916 415.577 191.9 409.953 191.396C404.405 206.728 394.189 210.632 380.555 217.197C366.159 224.133 351.687 231.017 337.257 237.896C335.394 237.729 334.259 237.781 332.595 236.901L332.265 235.671C333.661 233.14 340.014 229.411 342.729 227.78L342.64 226.796C356.844 220.009 393.955 205.343 401.07 193.492C389.383 196.473 373.055 202.922 361.347 207.196C340.907 214.73 320.399 222.096 299.836 229.294C284.25 234.768 265.784 246.049 250.721 233.552C250.632 231.806 250.364 230.808 251.319 229.444C253.32 228.895 254.722 229.028 256.785 229.043C257.19 229.259 257.596 229.471 258.009 229.679C261.563 231.476 266.554 232.731 270.404 231.502C314.631 217.377 358.418 199.23 402.569 184.917C401.834 182.552 401.497 180.448 399.482 179.077C398.41 178.655 397.365 178.58 396.265 178.931C364.021 189.263 332.128 202.033 299.987 212.53C293.119 215.158 283.508 219.185 276.523 220.682C259.576 224.319 258.057 208.386 269.978 199.146ZM290.431 208.168L373.577 178.575C379.187 176.595 392.215 174.122 395.584 170.481C396.169 168.148 396.217 169.137 395.165 166.716C393.584 165.298 392.133 164.524 389.981 164.366C388.214 164.236 276.165 203.377 272.116 206.538C270.94 208.45 269.868 209.786 270.005 212.039C272.907 215.853 286.017 209.69 290.431 208.168Z" fill="url(#paint3_linear_2_50)"/>
<path d="M299.987 212.53C293.119 215.158 283.508 219.185 276.523 220.682C259.576 224.319 258.057 208.386 269.978 199.146C267.627 204.566 264.602 208.092 265.214 213.992C268.514 212.497 266.286 207.785 272.116 206.538C270.94 208.45 269.868 209.786 270.005 212.039C272.907 215.853 286.017 209.69 290.431 208.168L290.493 209.235C287.722 210.765 281.514 211.632 279.238 216.17L280.05 216.956C283.749 215.848 295.36 210.456 299.987 212.53Z" fill="url(#paint4_linear_2_50)"/>
<path d="M229.103 78.7815C255.059 71.7835 267.943 79.6347 292.253 88.0518L349.92 107.902L384.055 119.483C389.775 121.427 396.622 123.086 401.875 126.105C404.432 127.574 406.722 130.057 407.334 133.01C407.753 135.081 407.437 136.949 406.185 138.662C400.864 145.966 362.316 157.35 351.701 160.945C333.537 168.318 312.871 174.436 294.398 181.377C285.433 184.743 270.899 188.68 263.213 193.65C258.813 196.53 255.375 200.66 253.34 205.508C249.704 214.12 250.556 222.08 256.785 229.043C254.722 229.028 253.32 228.895 251.319 229.444C250.364 230.808 250.632 231.806 250.721 233.552C244.795 226.77 243.365 220.853 244.169 211.923C245.84 193.254 259.844 185.374 275.801 179.937C297.361 172.594 318.701 164.388 340.302 157.083C347.439 154.303 398.678 137.796 399.764 134.236C396.636 130.603 264.54 86.9221 251.312 83.4018C239.57 80.0143 207.382 90.7298 196.409 96.3079L194.768 95.3165L194.75 95.5915C196.69 89.4063 216.159 88.1535 221.818 83.1935C223.916 81.3543 225.972 81.3192 229.064 79.8513L229.103 78.7815Z" fill="url(#paint5_linear_2_50)"/>
<path d="M250.721 233.552C244.795 226.77 243.365 220.853 244.169 211.923C245.84 193.254 259.844 185.374 275.801 179.937C297.361 172.594 318.701 164.388 340.302 157.083L339.828 158.355C325.5 163.963 260.91 185.215 255.08 193.795L255.3 194.821C256.07 194.802 256.95 194.969 257.5 194.512C268.713 185.267 286.354 182.113 300.132 178.071C307.515 175.905 347.982 159.927 351.701 160.945C333.537 168.318 312.871 174.436 294.398 181.377C285.433 184.743 270.899 188.68 263.213 193.65C258.813 196.53 255.375 200.66 253.34 205.508C249.704 214.12 250.556 222.08 256.785 229.043C254.722 229.028 253.32 228.895 251.319 229.444C250.364 230.808 250.632 231.806 250.721 233.552Z" fill="url(#paint6_linear_2_50)"/>
<path d="M387.561 271.345C395.254 272.106 415.735 279.874 423.352 283.326C426.364 284.693 429.945 286.98 431.032 290.305C431.623 292.116 431.348 293.892 430.523 295.576C426.755 303.272 393.082 313.028 384.007 316.328C382.645 316.205 381.738 315.732 380.48 315.218C379.194 313.415 379.407 314.28 379.772 311.961C383.787 306.425 415.927 297.808 425.195 292.403C418.787 289.422 387.231 279.67 385.464 276.034C385.753 273.178 385.753 273.919 387.561 271.345Z" fill="url(#paint7_linear_2_50)"/>
<defs>
<linearGradient id="paint0_linear_2_50" x1="-71.1612" y1="-30.2327" x2="470.149" y2="463.348" gradientUnits="userSpaceOnUse">
<stop stop-color="#F59E0B"/>
<stop offset="1" stop-color="#FFDA6E"/>
</linearGradient>
<linearGradient id="paint1_linear_2_50" x1="-71.1612" y1="-30.2327" x2="470.149" y2="463.348" gradientUnits="userSpaceOnUse">
<stop stop-color="#F59E0B"/>
<stop offset="1" stop-color="#FFDA6E"/>
</linearGradient>
<linearGradient id="paint2_linear_2_50" x1="-71.1612" y1="-30.2327" x2="470.149" y2="463.348" gradientUnits="userSpaceOnUse">
<stop stop-color="#F59E0B"/>
<stop offset="1" stop-color="#FFDA6E"/>
</linearGradient>
<linearGradient id="paint3_linear_2_50" x1="-71.1612" y1="-30.2327" x2="470.149" y2="463.348" gradientUnits="userSpaceOnUse">
<stop stop-color="#F59E0B"/>
<stop offset="1" stop-color="#FFDA6E"/>
</linearGradient>
<linearGradient id="paint4_linear_2_50" x1="-71.1612" y1="-30.2327" x2="470.149" y2="463.348" gradientUnits="userSpaceOnUse">
<stop stop-color="#F59E0B"/>
<stop offset="1" stop-color="#FFDA6E"/>
</linearGradient>
<linearGradient id="paint5_linear_2_50" x1="-71.1612" y1="-30.2327" x2="470.149" y2="463.348" gradientUnits="userSpaceOnUse">
<stop stop-color="#F59E0B"/>
<stop offset="1" stop-color="#FFDA6E"/>
</linearGradient>
<linearGradient id="paint6_linear_2_50" x1="-71.1612" y1="-30.2327" x2="470.149" y2="463.348" gradientUnits="userSpaceOnUse">
<stop stop-color="#F59E0B"/>
<stop offset="1" stop-color="#FFDA6E"/>
</linearGradient>
<linearGradient id="paint7_linear_2_50" x1="-71.1612" y1="-30.2327" x2="470.149" y2="463.348" gradientUnits="userSpaceOnUse">
<stop stop-color="#F59E0B"/>
<stop offset="1" stop-color="#FFDA6E"/>
</linearGradient>
</defs>
</svg>
